<svg xmlns="http://www.w3.org/2000/svg" xmlns:xlink="http://www.w3.org/1999/xlink" version="1.1" x="0px" y="0px" viewBox="0 0 100 125" enable-background="new 0 0 100 100" xml:space="preserve"><g><path fill="none" d="M74.702,35c0-13.621-11.081-24.702-24.702-24.702c-13.62,0-24.702,11.081-24.701,24.698   c0,5.435,1.767,10.462,4.753,14.545c0.295-1.616,1.111-4.81,3.276-8.015c0,0,0.878-1.198,2.955-1.996c0,0,4.771-1.448,6.757-2.982   c0.244-0.275,0.49-0.574,0.738-0.904c0.003-0.007,0.006-0.013,0.009-0.02c0.039-0.117,0.344-1.035,0.344-1.288   c0,0,0.006,0.038,0.018,0.101c0.082-0.616-0.007-1.056-0.007-1.056c0.006,0.006,0.012,0.011,0.017,0.017   c-0.807-1.137-1.447-2.445-1.818-3.789c-0.154-0.074-0.683-0.405-0.853-1.486c0,0-0.495-1.771-0.222-2.45   c-0.031-0.073-0.798-1.864-0.481-4.727c0,0,1.141-6.27,6.471-7.168c0,0,4.372-1.077,7.307,0.719   c3.172,1.199,3.773,3.894,3.773,3.894c1.686,2.85,0.493,6.546,0.423,6.757c0.229,0.36,0.373,1.072-0.122,2.466   c0,0-0.386,1.822-1.134,2.57c-0.442,1.218-1.104,2.414-1.921,3.46c0.039-0.04,0.059-0.061,0.059-0.061   c-0.013,0.242-0.008,0.467,0.01,0.68c0.029-0.121,0.041-0.191,0.041-0.191c0,0.216,0.233,1.087,0.328,1.429c0,0,0,0,0,0.002   c0.023,0.083,0.039,0.137,0.039,0.137c0,0.006,0,0.012,0,0.019c0.018,0.041,0.037,0.088,0.063,0.144   c0.229,0.442,0.979,1.307,3.438,2.173c0,0,6.588,2.077,7.666,4.473c0,0,2.59,1.887,2.852,6.917   C72.982,45.314,74.702,40.355,74.702,35z"/><path d="M50,5C33.431,5,20,18.431,20,35c0,16.568,30,60,30,60s30-43.432,30-60C80,18.431,66.568,5,50,5z M67.225,42.449   c-1.078-2.396-7.666-4.473-7.666-4.473c-2.459-0.866-3.209-1.731-3.438-2.173c-0.025-0.056-0.045-0.103-0.063-0.144   c0-0.007,0-0.013,0-0.019c0,0-0.016-0.054-0.039-0.137c0-0.002,0-0.002,0-0.002c-0.095-0.342-0.328-1.213-0.328-1.429   c0,0-0.012,0.07-0.041,0.191c-0.018-0.213-0.022-0.438-0.01-0.68c0,0-0.02,0.021-0.059,0.061c0.816-1.046,1.479-2.242,1.921-3.46   c0.748-0.748,1.134-2.57,1.134-2.57c0.495-1.395,0.352-2.106,0.122-2.466c0.07-0.211,1.263-3.907-0.423-6.757   c0,0-0.602-2.695-3.773-3.894c-2.935-1.796-7.307-0.719-7.307-0.719c-5.33,0.898-6.471,7.168-6.471,7.168   c-0.317,2.863,0.45,4.654,0.481,4.727c-0.273,0.679,0.222,2.45,0.222,2.45c0.17,1.081,0.699,1.412,0.853,1.486   c0.371,1.344,1.011,2.652,1.818,3.789c-0.005-0.006-0.011-0.011-0.017-0.017c0,0,0.089,0.44,0.007,1.056   c-0.012-0.063-0.018-0.101-0.018-0.101c0,0.253-0.305,1.171-0.344,1.288c-0.003,0.007-0.006,0.013-0.009,0.02   c-0.248,0.33-0.494,0.629-0.738,0.904c-1.986,1.534-6.757,2.982-6.757,2.982c-2.077,0.798-2.955,1.996-2.955,1.996   c-2.165,3.205-2.981,6.399-3.276,8.015c-2.986-4.083-4.753-9.11-4.753-14.545C25.298,21.379,36.38,10.298,50,10.298   c13.621,0,24.702,11.081,24.702,24.702c0,5.355-1.72,10.314-4.626,14.366C69.814,44.336,67.225,42.449,67.225,42.449z"/></g></svg>